<?xml version="1.0" encoding="UTF-8"?>
<!DOCTYPE svg PUBLIC "-//W3C//DTD SVG 1.1//EN" "http://www.w3.org/Graphics/SVG/1.1/DTD/svg11.dtd">
<svg xmlns="http://www.w3.org/2000/svg" version="1.1" width="512px" height="512px" style="shape-rendering:geometricPrecision; text-rendering:geometricPrecision; image-rendering:optimizeQuality; fill-rule:evenodd; clip-rule:evenodd" xmlns:xlink="http://www.w3.org/1999/xlink">
<g><path style="opacity:0.9" fill="oldlace" d="M 338.5,100.5 C 350.578,99.1337 360.411,103.134 368,112.5C 386.053,144.42 394.053,178.753 392,215.5C 405.964,232.765 414.464,252.432 417.5,274.5C 428.995,275.829 435.328,282.329 436.5,294C 445.691,302.919 448.857,313.753 446,326.5C 442.111,347.726 443.111,368.726 449,389.5C 456.754,390.317 464.588,390.817 472.5,391C 476.809,393.573 477.476,396.906 474.5,401C 371.555,402.16 268.555,402.994 165.5,403.5C 158.388,410.605 150.055,412.272 140.5,408.5C 134.34,410.152 128.34,409.819 122.5,407.5C 112.723,412.362 104.056,410.862 96.5,403C 76.4355,402.964 56.4355,402.298 36.5,401C 33.5244,396.906 34.191,393.573 38.5,391C 49.1615,390.5 59.8281,390.333 70.5,390.5C 70.1807,379.626 73.1807,369.793 79.5,361C 72.7475,342.397 70.4142,323.23 72.5,303.5C 71.5381,298.35 69.0381,294.017 65,290.5C 47.9323,266.961 39.9323,240.627 41,211.5C 43.6699,201.497 49.8366,194.664 59.5,191C 76.6198,183.054 94.6198,179.22 113.5,179.5C 124.257,179.73 134.924,180.563 145.5,182C 181.164,159.451 220.164,149.118 262.5,151C 281.718,124.896 307.052,108.062 338.5,100.5 Z M 342.5,111.5 C 348.725,111.53 353.891,113.863 358,118.5C 375.613,149.9 383.28,183.567 381,219.5C 387.417,227.994 393.083,236.994 398,246.5C 402.115,255.835 404.782,265.501 406,275.5C 397.121,267.572 387.621,266.738 377.5,273C 375.212,275.743 373.045,278.577 371,281.5C 355.836,280.663 348.503,287.996 349,303.5C 342.731,307.366 339.564,313.033 339.5,320.5C 341.088,329.098 343.588,337.432 347,345.5C 350.951,360.398 351.451,375.398 348.5,390.5C 289.5,390.5 230.5,390.5 171.5,390.5C 170.172,369.316 159.838,354.15 140.5,345C 122.101,337.563 104.767,339.397 88.5,350.5C 84.8886,339.835 82.8886,328.835 82.5,317.5C 83.5176,310.185 83.6842,302.851 83,295.5C 72.3675,282.577 64.0342,268.244 58,252.5C 53.6146,240.189 51.6146,227.522 52,214.5C 53.3062,210.187 55.8062,206.687 59.5,204C 86.6064,190.07 114.94,186.904 144.5,194.5C 148.958,193.688 152.791,191.688 156,188.5C 159.344,197.358 163.844,205.525 169.5,213C 174.876,215.321 179.376,214.154 183,209.5C 183.846,198.869 183.013,188.369 180.5,178C 180.645,177.228 180.978,176.561 181.5,176C 183.519,175.55 185.352,174.717 187,173.5C 189.813,191.939 195.813,209.272 205,225.5C 208.05,229.13 211.883,230.297 216.5,229C 219,227.833 220.833,226 222,223.5C 224.106,203.707 223.272,184.041 219.5,164.5C 222.119,164.232 224.619,164.565 227,165.5C 230.279,174.724 234.612,183.391 240,191.5C 246.033,195.996 251.367,195.329 256,189.5C 256.247,180.468 255.747,171.468 254.5,162.5C 259.179,162.666 263.845,162.499 268.5,162C 286.84,135.816 311.507,118.982 342.5,111.5 Z M 300.5,242.5 C 308.018,242.887 310.518,246.554 308,253.5C 302.347,257.614 298.18,256.281 295.5,249.5C 296.065,246.284 297.732,243.951 300.5,242.5 Z M 154.5,274.5 C 161.329,273.828 164.163,276.828 163,283.5C 160.947,287.292 157.781,288.458 153.5,287C 149.4,282.445 149.733,278.278 154.5,274.5 Z M 386.5,280.5 C 393.005,279.586 397.672,282.086 400.5,288C 404.586,290.066 408.253,289.399 411.5,286C 421.697,285.202 426.197,290.036 425,300.5C 428.667,302.833 431.667,305.833 434,309.5C 434.935,311.909 435.435,314.409 435.5,317C 432.848,333.41 432.015,349.91 433,366.5C 433.796,374.314 435.296,381.98 437.5,389.5C 411.842,390.5 386.175,390.833 360.5,390.5C 362.671,373.258 361.504,356.258 357,339.5C 354.424,333.104 352.257,326.604 350.5,320C 351.308,317.912 352.308,315.912 353.5,314C 356.938,314.135 359.772,312.968 362,310.5C 362.641,306.845 362.141,303.345 360.5,300C 360.795,297.077 362.129,294.743 364.5,293C 368.337,292.239 372.004,292.739 375.5,294.5C 376.938,294.281 378.271,293.781 379.5,293C 380.672,288.153 383.006,283.986 386.5,280.5 Z M 113.5,351.5 C 138.1,351.461 153.767,363.127 160.5,386.5C 160.148,393.179 156.815,397.513 150.5,399.5C 150.167,399.167 149.833,398.833 149.5,398.5C 152.228,392.424 152.061,386.424 149,380.5C 145.277,376.689 141.944,377.023 139,381.5C 138.639,384.437 139.139,387.27 140.5,390C 139.152,396.673 135.152,399.339 128.5,398C 130.064,391.058 129.564,384.224 127,377.5C 123.337,374.667 120.004,375 117,378.5C 117.961,383.751 118.294,389.084 118,394.5C 113.721,400.481 109.055,400.481 104,394.5C 102.163,390.316 100.329,386.15 98.5,382C 91.3019,380.177 88.3019,383.01 89.5,390.5C 86.8333,390.5 84.1667,390.5 81.5,390.5C 82.7245,369.62 93.3912,356.62 113.5,351.5 Z"/></g>
<g><path style="opacity:0.883" fill="oldlace" d="M 305.5,157.5 C 327.655,156.494 344.821,165.16 357,183.5C 358.92,186.838 360.42,190.338 361.5,194C 360.692,199.205 357.692,200.872 352.5,199C 343.439,178.125 327.439,167.792 304.5,168C 301.615,164.056 301.948,160.556 305.5,157.5 Z"/></g>
<g><path style="opacity:0.887" fill="oldlace" d="M 117.5,214.5 C 125.207,213.201 127.873,216.201 125.5,223.5C 105.847,232.447 95.347,247.781 94,269.5C 91.2935,271.886 88.4602,272.052 85.5,270C 84.0584,244.59 94.7251,226.09 117.5,214.5 Z"/></g>
<g><path style="opacity:0.955" fill="lawngreen" d="M 289.5,230.5 C 313.039,228.24 326.039,238.74 328.5,262C 327.343,281.823 316.843,292.323 297,293.5C 274.093,290.585 263.76,277.585 266,254.5C 269.358,241.977 277.191,233.977 289.5,230.5 Z M 300.5,242.5 C 297.732,243.951 296.065,246.284 295.5,249.5C 298.18,256.281 302.347,257.614 308,253.5C 310.518,246.554 308.018,242.887 300.5,242.5 Z"/></g>
<g><path style="opacity:0.951" fill="orange" d="M 147.5,261.5 C 169.009,261.573 181.009,272.24 183.5,293.5C 179.44,319.036 164.774,328.869 139.5,323C 126.769,317.396 120.103,307.563 119.5,293.5C 120.757,275.586 130.091,264.919 147.5,261.5 Z M 154.5,274.5 C 149.733,278.278 149.4,282.445 153.5,287C 157.781,288.458 160.947,287.292 163,283.5C 164.163,276.828 161.329,273.828 154.5,274.5 Z"/></g>
<g><path style="opacity:0.919" fill="oldlace" d="M 229.5,276.5 C 235.741,274.988 240.241,276.988 243,282.5C 244.993,293.186 242.16,302.353 234.5,310C 241.756,318.396 249.923,319.563 259,313.5C 260.892,309.374 262.059,305.041 262.5,300.5C 269.275,296.484 272.941,298.484 273.5,306.5C 270.151,324.352 259.484,331.519 241.5,328C 238.716,327.108 236.05,325.942 233.5,324.5C 227.294,337.603 216.96,342.77 202.5,340C 200.051,339.275 197.717,338.275 195.5,337C 192.833,333.667 192.833,330.333 195.5,327C 197.5,326.333 199.5,326.333 201.5,327C 212.987,332.226 220.321,328.726 223.5,316.5C 223.32,315.446 222.987,314.446 222.5,313.5C 214.984,311.158 208.484,307.158 203,301.5C 198.598,293.041 200.764,286.874 209.5,283C 216.373,281.097 223.04,278.93 229.5,276.5 Z"/></g>
</svg>
