<?xml version="1.0" encoding="UTF-8"?>
<!DOCTYPE svg PUBLIC "-//W3C//DTD SVG 1.1//EN" "http://www.w3.org/Graphics/SVG/1.1/DTD/svg11.dtd">
<svg xmlns="http://www.w3.org/2000/svg" version="1.1" width="512px" height="512px" style="shape-rendering:geometricPrecision; text-rendering:geometricPrecision; image-rendering:optimizeQuality; fill-rule:evenodd; clip-rule:evenodd" xmlns:xlink="http://www.w3.org/1999/xlink">
<g><path style="opacity:0.926" fill="red" d="M 357.5,53.5 C 369.599,52.253 380.933,54.5864 391.5,60.5C 415.667,47.8013 436.5,51.8013 454,72.5C 464.817,93.2207 463.484,113.221 450,132.5C 438.16,149.346 422.993,162.179 404.5,171C 391.695,175.38 379.695,173.713 368.5,166C 349.845,155.012 335.678,139.845 326,120.5C 316.452,97.943 320.619,78.443 338.5,62C 344.453,58.0811 350.786,55.2477 357.5,53.5 Z M 359.5,69.5 C 369.294,68.28 377.961,70.78 385.5,77C 392.086,79.5828 397.752,78.2494 402.5,73C 420.092,65.5307 433.592,70.0307 443,86.5C 447.006,98.082 445.673,109.082 439,119.5C 428.639,135.196 415.139,147.363 398.5,156C 393.833,158 389.167,158 384.5,156C 362.01,145.514 346.51,128.68 338,105.5C 335.476,87.5583 342.643,75.5583 359.5,69.5 Z"/></g>
<g><path style="opacity:0.93" fill="oldlace" d="M 511.5,226.5 C 511.5,240.167 511.5,253.833 511.5,267.5C 509.393,283.588 505.226,299.254 499,314.5C 494.625,319.381 489.958,319.715 485,315.5C 484.077,313.966 483.577,312.299 483.5,310.5C 488.883,297.304 492.549,283.637 494.5,269.5C 485.161,269.666 475.827,269.5 466.5,269C 464.109,268.713 461.776,268.213 459.5,267.5C 456.105,286.289 447.939,302.623 435,316.5C 431.376,330.631 431.71,344.631 436,358.5C 447.93,352.244 458.43,344.077 467.5,334C 474.426,331.425 478.76,333.758 480.5,341C 480,342.5 479.5,344 479,345.5C 468.227,357.963 455.393,367.629 440.5,374.5C 440.505,398.658 430.838,417.825 411.5,432C 387.662,447.882 361.329,456.216 332.5,457C 270.713,462.578 219.379,442.412 178.5,396.5C 142.546,404.721 112.713,394.721 89,366.5C 82.6236,358.255 77.1236,349.421 72.5,340C 54.2608,340.477 38.2608,334.81 24.5,323C 17.9679,316.802 11.8013,310.302 6,303.5C 3.25995,299.353 1.09328,295.02 -0.5,290.5C -0.5,284.5 -0.5,278.5 -0.5,272.5C 2.25468,263.523 7.58801,256.356 15.5,251C 35.0219,239.992 55.6885,231.825 77.5,226.5C 93.5,197.833 115.833,175.5 144.5,159.5C 148.253,144.329 153.42,129.662 160,115.5C 164.958,111.285 169.625,111.619 174,116.5C 174.167,117.667 174.333,118.833 174.5,120C 170.843,130.319 167.176,140.652 163.5,151C 172.644,148.605 181.977,146.771 191.5,145.5C 188.68,128.569 191.347,112.569 199.5,97.5C 199.167,97.1667 198.833,96.8333 198.5,96.5C 192.972,99.4126 187.305,99.9126 181.5,98C 179.571,94.7441 179.071,91.2441 180,87.5C 193.262,78.4141 206.762,78.2474 220.5,87C 237.25,98.7498 249.084,114.25 256,133.5C 257.973,140.114 258.473,146.781 257.5,153.5C 279.425,164.03 296.591,179.697 309,200.5C 311.94,207.205 314.44,214.039 316.5,221C 347.727,206.566 376.227,210.732 402,233.5C 416.613,249.729 422.946,268.729 421,290.5C 423.683,293.016 426.183,295.683 428.5,298.5C 433.87,292.434 437.703,285.434 440,277.5C 441.256,272.552 442.256,267.552 443,262.5C 443.333,249.5 443.667,236.5 444,223.5C 451.496,201.332 466.663,193.166 489.5,199C 501.743,204.357 509.076,213.523 511.5,226.5 Z M 214.5,104.5 C 230.363,114.868 239.697,129.534 242.5,148.5C 231.015,145.669 219.348,144.336 207.5,144.5C 204.881,130.211 207.214,116.878 214.5,104.5 Z M 195.5,160.5 C 235.894,157.127 268.061,171.46 292,203.5C 298.234,212.949 301.234,223.282 301,234.5C 289.328,247.524 282.828,262.857 281.5,280.5C 276.703,283.796 273.203,288.129 271,293.5C 267.732,301.638 265.065,309.971 263,318.5C 242.146,343.702 216.979,363.202 187.5,377C 145.31,391.322 113.144,379.155 91,340.5C 72.8751,301.206 74.8751,262.872 97,225.5C 120.359,189.409 153.192,167.742 195.5,160.5 Z M 475.5,212.5 C 486.072,212.907 492.572,218.241 495,228.5C 495.5,236.493 495.666,244.493 495.5,252.5C 483.449,253.998 471.449,253.665 459.5,251.5C 459.334,242.827 459.5,234.16 460,225.5C 463.141,218.689 468.307,214.356 475.5,212.5 Z M 345.5,228.5 C 376.077,227.863 395.577,242.196 404,271.5C 405.082,275.864 405.249,280.197 404.5,284.5C 381.063,283.591 368.063,294.925 365.5,318.5C 364.656,323.8 364.323,329.134 364.5,334.5C 352.878,336.432 341.545,335.432 330.5,331.5C 333.009,323.804 335.009,315.971 336.5,308C 334.362,285.594 322.029,274.094 299.5,273.5C 304.97,248.363 320.303,233.363 345.5,228.5 Z M 67.5,245.5 C 68.4972,245.47 69.1639,245.97 69.5,247C 67.0787,255.774 64.9121,264.607 63,273.5C 50.6967,271.703 38.5301,272.536 26.5,276C 22.6371,277.181 19.1371,279.014 16,281.5C 15.5171,275.291 17.6838,270.124 22.5,266C 36.9359,257.699 51.9359,250.865 67.5,245.5 Z M 41.5,288.5 C 48.4222,288.188 55.2555,288.521 62,289.5C 62.735,300.952 64.235,312.285 66.5,323.5C 54.611,323.149 44.2776,318.982 35.5,311C 31.3333,306.833 27.1667,302.667 23,298.5C 22.3333,297.833 22.3333,297.167 23,296.5C 28.6748,292.558 34.8415,289.891 41.5,288.5 Z M 298.5,289.5 C 309.62,288.781 316.787,293.781 320,304.5C 320.132,310.454 318.798,316.12 316,321.5C 311.905,335.105 311.571,348.772 315,362.5C 319.076,366.034 323.409,366.367 328,363.5C 329.022,361.298 329.522,358.965 329.5,356.5C 329.062,353.473 328.895,350.473 329,347.5C 340.575,351.24 352.408,352.407 364.5,351C 366.147,361.231 368.313,371.398 371,381.5C 374.537,388.052 379.204,389.052 385,384.5C 385.985,382.634 386.485,380.634 386.5,378.5C 380.097,356.769 378.93,334.769 383,312.5C 388.938,300.056 398.105,296.889 410.5,303C 417.563,309.087 419.73,316.587 417,325.5C 416.333,332.833 416.333,340.167 417,347.5C 419.405,358.621 421.572,369.788 423.5,381C 422.194,395.61 415.861,407.61 404.5,417C 382.666,432.217 358.332,440.217 331.5,441C 279.355,445.956 234.855,430.123 198,393.5C 197.626,392.584 197.126,391.75 196.5,391C 220.454,379.711 241.62,364.545 260,345.5C 260.46,354.974 261.793,364.307 264,373.5C 271.399,379.687 276.566,378.187 279.5,369C 274.121,345.183 276.288,322.016 286,299.5C 288.887,294.434 293.054,291.101 298.5,289.5 Z"/></g>
<g><path style="opacity:0.874" fill="forestgreen" d="M 217.5,214.5 C 228.058,215.201 235.058,220.701 238.5,231C 236.954,237.442 232.954,239.775 226.5,238C 220.28,234.122 215.947,228.788 213.5,222C 213.927,218.977 215.261,216.477 217.5,214.5 Z"/></g>
<g><path style="opacity:0.919" fill="oldlace" d="M 208.5,251.5 C 216.386,251.534 221.219,255.534 223,263.5C 225.596,279.339 219.096,288.672 203.5,291.5C 201.315,304.185 193.815,311.185 181,312.5C 173.031,312.52 167.031,309.186 163,302.5C 162.548,294.292 166.381,291.125 174.5,293C 180.203,298.158 184.536,297.158 187.5,290C 184.43,284.924 180.597,280.424 176,276.5C 166.604,277.743 163.271,273.743 166,264.5C 169.167,261.333 172.333,258.167 175.5,255C 185.061,251.903 189.061,255.236 187.5,265C 190.5,268 193.5,271 196.5,274C 202.252,277.067 205.919,275.567 207.5,269.5C 207.033,266.852 205.866,264.519 204,262.5C 202.776,257.626 204.276,253.959 208.5,251.5 Z"/></g>
<g><path style="opacity:0.893" fill="forestgreen" d="M 130.5,302.5 C 133.32,302.248 135.986,302.748 138.5,304C 141.667,307.167 144.833,310.333 148,313.5C 151.66,323.68 148.16,327.846 137.5,326C 134,322.5 130.5,319 127,315.5C 124.186,309.938 125.352,305.605 130.5,302.5 Z"/></g>
</svg>
