<?xml version="1.0" encoding="UTF-8"?>
<!DOCTYPE svg PUBLIC "-//W3C//DTD SVG 1.1//EN" "http://www.w3.org/Graphics/SVG/1.1/DTD/svg11.dtd">
<svg xmlns="http://www.w3.org/2000/svg" version="1.1" width="512px" height="512px" style="shape-rendering:geometricPrecision; text-rendering:geometricPrecision; image-rendering:optimizeQuality; fill-rule:evenodd; clip-rule:evenodd" xmlns:xlink="http://www.w3.org/1999/xlink">
<g><path style="opacity:0.89" fill="lawngreen" d="M 429.5,47.5 C 447.555,49.0195 463.888,55.1862 478.5,66C 484.375,73.2749 483.042,78.9416 474.5,83C 454.797,87.5091 435.13,92.1758 415.5,97C 409.161,98.9203 403.327,101.754 398,105.5C 397.333,106.5 397.333,107.5 398,108.5C 400.743,110.788 403.577,112.955 406.5,115C 416.256,119.961 426.09,124.795 436,129.5C 437.697,135.44 435.697,139.44 430,141.5C 415.009,133.507 400.676,124.507 387,114.5C 383.142,109.649 382.809,104.649 386,99.5C 389.293,96.2131 393.127,93.7131 397.5,92C 416.562,85.7341 435.896,80.4008 455.5,76C 459.161,75.171 462.495,73.671 465.5,71.5C 461.145,65.9838 455.478,62.4838 448.5,61C 441.218,59.8655 433.885,59.1988 426.5,59C 424.611,54.3443 425.611,50.511 429.5,47.5 Z"/></g>
<g><path style="opacity:0.862" fill="red" d="M 322.5,53.5 C 335.258,53.8722 346.925,57.7055 357.5,65C 365.817,71.3971 365.151,76.7304 355.5,81C 338.942,84.1112 322.609,88.1112 306.5,93C 303.497,94.1662 300.83,95.8328 298.5,98C 302.142,101.487 306.142,104.487 310.5,107C 316.532,109.433 322.366,112.266 328,115.5C 329.578,120.132 328.078,123.132 323.5,124.5C 312.874,118.852 302.54,112.686 292.5,106C 285.832,97.0651 287.832,90.7317 298.5,87C 311.563,82.4007 324.896,78.734 338.5,76C 342.777,74.9101 346.777,73.2435 350.5,71C 347.341,67.9177 343.675,65.5843 339.5,64C 333.184,63.0724 326.851,62.239 320.5,61.5C 319.35,58.4415 320.017,55.7748 322.5,53.5 Z"/></g>
<g><path style="opacity:0.896" fill="oldlace" d="M 193.5,78.5 C 215.71,82.3712 234.71,92.3712 250.5,108.5C 269.412,128.316 282.079,151.649 288.5,178.5C 312.151,184.574 334.651,193.574 356,205.5C 366.934,193.561 378.767,182.727 391.5,173C 405.285,163.103 420.618,157.769 437.5,157C 450.993,165.507 460.493,177.34 466,192.5C 472.383,209.249 475.216,226.582 474.5,244.5C 473.547,280.433 466.38,315.099 453,348.5C 447.389,388.434 426.222,416.6 389.5,433C 357.219,444.432 324.219,446.098 290.5,438C 282.158,436.373 273.992,434.207 266,431.5C 260.565,442.61 251.899,449.61 240,452.5C 226.842,449.36 222.175,441.36 226,428.5C 223.832,432.629 221.832,436.963 220,441.5C 218.269,443.617 216.102,445.117 213.5,446C 207.034,446.919 200.701,446.419 194.5,444.5C 190.616,446.295 186.616,447.795 182.5,449C 186.762,454.693 190.096,460.86 192.5,467.5C 192.594,469.912 191.594,471.745 189.5,473C 146.019,506.467 100.686,509.134 53.5,481C 26.5568,459.497 16.7235,431.997 24,398.5C 29.3926,390.448 36.8926,385.615 46.5,384C 52.1569,383.501 57.8236,383.334 63.5,383.5C 65.4295,361.476 74.4295,342.976 90.5,328C 94.0383,325.731 97.705,323.731 101.5,322C 98.978,320.659 96.3113,319.826 93.5,319.5C 93.5,318.5 93.5,317.5 93.5,316.5C 99.8399,316.151 106.173,315.651 112.5,315C 110.077,310.066 108.244,304.9 107,299.5C 102.205,296.859 97.7051,293.859 93.5,290.5C 94.3333,290.167 95.1667,289.833 96,289.5C 99.1635,290.25 102.33,290.916 105.5,291.5C 102.301,253.579 114.468,221.579 142,195.5C 149.012,160.794 161.345,128.128 179,97.5C 183.357,90.7769 188.19,84.4436 193.5,78.5 Z M 196.5,83.5 C 229.853,96.0161 253.686,118.683 268,151.5C 270.8,158.733 273.3,166.066 275.5,173.5C 275,173.833 274.5,174.167 274,174.5C 268.907,173.377 263.907,172.044 259,170.5C 252.581,142.146 238.748,118.313 217.5,99C 212.556,94.9421 207.056,91.7754 201,89.5C 199.395,90.1007 198.062,91.1007 197,92.5C 179.482,119.866 167.316,149.533 160.5,181.5C 158.353,183.839 155.853,185.839 153,187.5C 158.894,156.491 169.56,127.158 185,99.5C 188.598,93.9609 192.431,88.6276 196.5,83.5 Z M 115.5,304.5 C 121.226,306.941 127.226,307.941 133.5,307.5C 133.649,306.448 133.483,305.448 133,304.5C 127.601,299.049 121.101,295.549 113.5,294C 107.873,255.897 119.539,223.897 148.5,198C 176.664,178.126 207.998,170.46 242.5,175C 255.035,176.307 267.368,178.64 279.5,182C 275.656,188.199 272.989,194.866 271.5,202C 271.846,204.214 273.012,205.714 275,206.5C 283.679,202.159 290.846,195.992 296.5,188C 297.944,187.219 299.277,187.386 300.5,188.5C 294.353,198.126 289.853,208.46 287,219.5C 286.21,222.634 286.543,225.634 288,228.5C 292.364,230.017 296.53,229.517 300.5,227C 311.376,219.125 320.542,209.625 328,198.5C 328.692,199.025 329.192,199.692 329.5,200.5C 324.004,208.272 321.338,216.772 321.5,226C 324.303,226.755 326.97,226.422 329.5,225C 335.7,219.798 341.533,214.298 347,208.5C 351.08,210.25 354.913,212.417 358.5,215C 359.5,215.667 360.5,215.667 361.5,215C 373.167,200.667 386.167,187.667 400.5,176C 410.04,168.376 420.874,163.876 433,162.5C 449.677,176.177 459.344,193.843 462,215.5C 466.934,259.168 460.601,301.168 443,341.5C 436.428,390.739 408.928,420.905 360.5,432C 354.201,433.33 347.868,433.996 341.5,434C 334.004,424.321 324.338,418.154 312.5,415.5C 313.527,419.217 315.361,422.55 318,425.5C 321.566,428.699 325.4,431.533 329.5,434C 300.502,434.067 272.502,428.734 245.5,418C 204.755,403.557 169.588,380.724 140,349.5C 133.549,341.434 127.716,332.934 122.5,324C 124.623,323.185 126.623,322.185 128.5,321C 125.337,318.584 122.004,316.418 118.5,314.5C 117.091,311.273 116.091,307.94 115.5,304.5 Z M 110.5,323.5 C 112.746,323.936 114.913,324.603 117,325.5C 127.492,345.001 141.326,361.834 158.5,376C 179.877,393.032 203.21,407.032 228.5,418C 226.089,419.955 223.589,421.789 221,423.5C 218.054,418.555 213.888,415.055 208.5,413C 201.721,410.437 194.721,408.937 187.5,408.5C 187.281,409.675 187.614,410.675 188.5,411.5C 194.167,414.667 199.833,417.833 205.5,421C 209,423.167 211.833,426 214,429.5C 214.436,437.065 210.769,440.732 203,440.5C 194.861,439.674 187.028,437.674 179.5,434.5C 178.068,434.733 177.568,435.4 178,436.5C 179.833,437.667 181.667,438.833 183.5,440C 181.781,441.057 179.947,441.89 178,442.5C 162.777,423.225 142.777,413.892 118,414.5C 103.698,415.142 89.5309,416.809 75.5,419.5C 74.914,419.291 74.414,418.957 74,418.5C 67.608,389.587 72.608,362.92 89,338.5C 95.1323,331.864 102.299,326.864 110.5,323.5 Z M 188.5,345.5 C 192.775,347.316 193.608,350.316 191,354.5C 185.283,360.157 183.283,358.824 185,350.5C 185.697,348.416 186.864,346.749 188.5,345.5 Z M 49.5,386.5 C 54.1667,386.5 58.8333,386.5 63.5,386.5C 63.0074,388.806 62.6741,391.139 62.5,393.5C 45.4934,394.172 39.9934,402.506 46,418.5C 50.7891,424.31 56.9557,426.977 64.5,426.5C 81.1618,425.107 97.8285,423.773 114.5,422.5C 121.636,422.7 128.636,423.7 135.5,425.5C 128.388,426.889 121.388,428.723 114.5,431C 109.154,433.003 104.487,436.003 100.5,440C 114.82,440.827 126.82,446.494 136.5,457C 125.766,457.056 115.433,459.056 105.5,463C 103.939,463.941 102.605,465.108 101.5,466.5C 109.954,470.226 117.954,474.726 125.5,480C 128.407,483.151 131.074,486.484 133.5,490C 97.2452,497.026 66.4119,487.192 41,460.5C 32.7385,448.719 27.4052,435.719 25,421.5C 22.8474,402.438 31.0141,390.772 49.5,386.5 Z M 57.5,396.5 C 59.1667,396.5 60.8333,396.5 62.5,396.5C 62.4029,404.572 63.0696,412.572 64.5,420.5C 51.4054,420.257 46.5721,413.923 50,401.5C 52.1699,399.177 54.6699,397.51 57.5,396.5 Z M 237.5,421.5 C 244.946,424.817 252.612,427.65 260.5,430C 254.419,435.911 247.419,440.411 239.5,443.5C 234.556,442.553 232.222,439.553 232.5,434.5C 233.326,429.847 234.993,425.514 237.5,421.5 Z"/></g>
<g><path style="opacity:0.806" fill="blue" d="M 350.5,134.5 C 361.095,134.199 370.762,137.032 379.5,143C 382.334,147.36 381.334,150.693 376.5,153C 366.44,155.798 356.44,158.798 346.5,162C 342.663,163.173 339.329,165.173 336.5,168C 337.5,169 338.5,170 339.5,171C 345.385,173.776 351.385,176.276 357.5,178.5C 358.641,180.421 358.808,182.421 358,184.5C 357.107,185.081 356.107,185.415 355,185.5C 346.841,182.337 339.008,178.504 331.5,174C 327.125,168.879 327.791,164.545 333.5,161C 346.132,155.792 358.799,150.792 371.5,146C 369.33,144.414 366.996,143.08 364.5,142C 359.511,141.501 354.511,141.334 349.5,141.5C 349.298,139.05 349.631,136.717 350.5,134.5 Z"/></g>
<g><path style="opacity:0.963" fill="oldlace" d="M 428.5,169.5 C 444.665,192.154 451.165,217.488 448,245.5C 446.082,262.515 441.082,278.515 433,293.5C 422.438,270.574 407.605,250.741 388.5,234C 382.128,229.155 375.795,224.322 369.5,219.5C 377.251,205.506 387.251,193.34 399.5,183C 408.229,176.3 417.896,171.8 428.5,169.5 Z"/></g>
<g><path style="opacity:0.825" fill="oldlace" d="M 141.5,289.5 C 152.713,289.964 163.879,290.964 175,292.5C 178.198,292.409 181.365,292.076 184.5,291.5C 185.737,291.556 186.737,292.056 187.5,293C 176.954,299.039 165.621,301.039 153.5,299C 148.545,297.524 144.212,295.024 140.5,291.5C 140.863,290.817 141.196,290.15 141.5,289.5 Z"/></g>
<g><path style="opacity:0.807" fill="oldlace" d="M 250.5,319.5 C 251.239,319.369 251.906,319.536 252.5,320C 261.108,330.471 271.441,338.804 283.5,345C 287.466,347.964 291.133,351.297 294.5,355C 293.737,355.944 292.737,356.444 291.5,356.5C 273.536,352.379 260.37,342.046 252,325.5C 251.187,323.564 250.687,321.564 250.5,319.5 Z"/></g>
<g><path style="opacity:0.696" fill="oldlace" d="M 186.5,340.5 C 192.598,339.672 196.264,342.172 197.5,348C 196.953,351.925 195.453,355.425 193,358.5C 186.155,363.165 181.988,361.332 180.5,353C 180.814,347.875 182.814,343.708 186.5,340.5 Z M 188.5,345.5 C 186.864,346.749 185.697,348.416 185,350.5C 183.283,358.824 185.283,360.157 191,354.5C 193.608,350.316 192.775,347.316 188.5,345.5 Z"/></g>
<g><path style="opacity:0.812" fill="oldlace" d="M 318.5,401.5 C 325.055,401.444 331.388,402.611 337.5,405C 346.698,409.426 355.365,414.593 363.5,420.5C 361.926,421.631 360.259,421.798 358.5,421C 346.061,418.633 334.394,414.299 323.5,408C 321.21,406.223 319.543,404.056 318.5,401.5 Z"/></g>
</svg>
